<?xml version="1.0" standalone="no"?><!DOCTYPE svg PUBLIC "-//W3C//DTD SVG 1.1//EN" "http://www.w3.org/Graphics/SVG/1.1/DTD/svg11.dtd"><svg t="1591372661229" class="icon" viewBox="0 0 1024 1024" version="1.1" xmlns="http://www.w3.org/2000/svg" p-id="1854" xmlns:xlink="http://www.w3.org/1999/xlink" width="200" height="200"><defs><style type="text/css"></style></defs><path d="M171.55610469 410.80377125c-4.79498438 14.38495312 0 19.1799375 0 71.92476656 0 14.38495312-57.53981344 71.92476656-81.51473625 134.25956438-23.97492187 62.33479781-23.97492187 129.46458 9.58996875 153.43950281 33.56489156 28.76990625 67.12978219-86.30971969 71.9247675-67.12978219 0 4.79498438 4.79498438 14.38495312 4.79498437 23.97492188 14.38495312 33.56489156 33.56489156 67.12978219 57.53981344 95.89968937 4.79498438 4.79498438-33.56489156 19.1799375-57.53981344 57.5398125-23.97492187 38.35987594 9.58996875 110.2846425 124.66959563 110.2846425 148.6445175 0 187.00439344-52.74482906 187.00439343-52.74482906h47.94984376c9.58996875 0 81.51473531 62.33479781 182.20940906 52.74482906 172.61944031-19.1799375 148.6445175-76.71975094 134.25956437-115.07962687-14.38495312-38.35987594-62.33479781-57.53981344-62.33479781-57.53981344 43.15486031-47.94984469 47.94984469-71.92476656 62.33479781-115.07962594 4.79498438-19.1799375 47.94984469 95.89968938 76.71975188 67.12978219 14.38495312-9.58996875 38.35987594-57.53981344 14.38495312-153.43950281s-76.71975094-119.87461125-76.71975093-134.25956438V410.80377125c-9.58996875-33.56489156-28.76990625-23.97492187-28.76990719-33.56489156 0-191.79937781-143.84953312-345.23887969-321.26395781-345.23887969S195.53102656 185.43950188 195.53102656 377.23887969c0 14.38495312-14.38495312 4.79498438-23.97492187 33.56489156z m0 0" fill="#4A9AFD" p-id="1855"></path></svg>