<?xml version="1.0" standalone="no"?><!DOCTYPE svg PUBLIC "-//W3C//DTD SVG 1.1//EN" "http://www.w3.org/Graphics/SVG/1.1/DTD/svg11.dtd"><svg t="1591470034796" class="icon" viewBox="0 0 1024 1024" version="1.1" xmlns="http://www.w3.org/2000/svg" p-id="2202" xmlns:xlink="http://www.w3.org/1999/xlink" width="200" height="200"><defs><style type="text/css"></style></defs><path d="M848.350514 526.162558c2.260483-21.251 0-345.994152 0-345.994152-251.347538 10.864442-323.371922-94.27413-323.371922-94.27413-69.287039 100.757798-322.793754 94.187149-322.793754 94.187149s-6.571672 131.423215 0 370.176924c6.571672 238.752686 323.083349 313.225841 323.083349 313.225841C863.135242 764.367775 845.612147 551.899732 848.350514 526.162558zM495.697709 624.729457 335.797929 478.996328l41.617863-33.878598 86.520539 65.711608c0 0 117.185956-124.852566 233.276974-181.802626l17.523095 19.713994C714.736401 348.740706 561.409316 475.783147 495.697709 624.729457z" p-id="2203"></path></svg>